<?xml version="1.0" encoding="utf-8"?>
<!-- Generator: Adobe Illustrator 21.0.0, SVG Export Plug-In . SVG Version: 6.00 Build 0)  -->
<svg version="1.1" id="Layer_1" xmlns="http://www.w3.org/2000/svg" xmlns:xlink="http://www.w3.org/1999/xlink" x="0px" y="0px"
	 viewBox="0 0 67 71" style="enable-background:new 0 0 67 71;" xml:space="preserve">
<style type="text/css">
	.st0{fill:#FFFFFF;}
</style>
<path class="st0" d="M61.4,15.1c0.5-2.2-1.2-4.5-2.3-5.7c0.4-0.6,0.7-1.3,0.7-2.1c0-2-1.6-3.6-3.6-3.6c-0.6,0-1.2,0.2-1.7,0.4
	c-0.8-1.6-2.4-2.7-4.3-2.7c-1.7,0-3.1,0.9-4,2.1c-0.3-0.1-0.6-0.1-0.9-0.1c-2.4,0-4.4,2-4.4,4.4c0,2.2,1.6,4.1,3.8,4.4
	c-0.5,1.1-1.5,3.6-3,6.4c-1.9,3.4-1.4,8.3-15.9,10.1S3,20.1,3,20.1c0.6,8.6,5.1,11.3,6.2,11.8c-2.4-0.9-5,2.1-5,2.1
	c1.5-0.3,5,2.2,5,2.2c-3.4-1.1-5.2,3-5.2,3c2.1-0.2,3.3,1.7,4.1,2.6c0.8,0.9,4.4,10.5,16.1,12.1C36,55.5,41.1,44,41.1,44
	c0.6,1.3-0.2,7.4-3.5,10.3c-5.3,4.5-14.5,6-14.5,6c4.8,1.7,9.1,1.3,9.1,1.3L30,62.9c-3.6,3.2,0.1,4.8,0.9,4.8c2.5,0,2.2-1.8,4.7-2.7
	c2.4-0.9,4,1.7,5.7,2.7s4.6,0.1,3.1-2.7c-1.5-2.8-6.7-2.4-6.7-2.4l0.2-1C58.8,56,61.6,38.3,58,31.2c-1.5-3-2.2-6.6-2.1-7.4
	c0.7-4.2,2.8-4.1,4.1-4.6c1.3-0.5,3.9,0.8,3.9,0.8C64.3,16.9,61.4,15.1,61.4,15.1z M54.3,15.5c-0.9,0-1.7-0.8-1.7-1.7
	s0.8-1.7,1.7-1.7c0.9,0,1.7,0.8,1.7,1.7S55.2,15.5,54.3,15.5z"/>
</svg>
